<svg xmlns="http://www.w3.org/2000/svg" width="146" height="126" viewBox="0 0 146 126">
    <defs>
        <linearGradient id="po6v89j2ja" x1="53.744%" x2="44.897%" y1="73.015%" y2="22.114%">
            <stop offset="0%" stop-color="#311944"/>
            <stop offset="100%" stop-color="#6B3976"/>
        </linearGradient>
    </defs>
    <g fill="none" fill-rule="evenodd">
        <g>
            <g>
                <g transform="translate(-115 -277) translate(15 251) translate(100 26)">
                    <path fill="#000" fill-rule="nonzero" d="M11.514 105.443c18.574 14.28 36.587 2.642 56.682 6.755 20.24 4.145 28.304 17.939 51.356 11.577 20.421-5.645 32.815-28.268 21.585-47.207-3.192-5.397-8.65-9.471-10.876-15.506-3.592-9.745 1.876-17.223.812-26.797-4.436-39.779-65.185-24.372-87.54-11.996-35.055 19.41-58.78 62.607-32.02 83.174z" opacity=".05"/>
                    <g fill-rule="nonzero">
                        <path fill="#DBDBDB" d="M100.308 50.069c.008 10.2-3.122 20.155-8.967 28.513-.025.036-.103.068-.103.1-8.865 12.974-24.024 21.379-41.041 21.379-1.367.008-2.733-.077-4.089-.256v.085c-.67-.057-1.337-.082-2-.163-.234-.029-.468-.04-.709-.071-.241-.032-.411-.046-.62-.078l-.536-.078-.12-.018c-.437-.07-.873-.149-1.305-.23C26.84 96.53 14.676 88.007 7.348 75.799.017 63.592-1.787 48.847 2.382 35.233c.23-.734.51-1.461.71-2.181.563-1.199.942-2.376 1.46-3.546.21-.461.443-.918.663-1.376 1.218-2.489 2.641-4.871 4.255-7.124l.444-.606c.592-.809 1.212-1.596 1.854-2.365.962-1.151 1.973-2.26 3.032-3.326 2.762-2.769 5.837-5.206 9.163-7.262 1.032-.639 2.092-1.245 3.173-1.805 2.638-1.38 5.395-2.518 8.238-3.4 24.564-7.563 50.88 4.59 61.054 28.193.71 1.691 1.213 3.433 1.968 5.216 0 0-.089 0-.085.021 1.364 4.676 2.037 9.526 1.996 14.397z" transform="translate(20.921)"/>
                        <g style="mix-blend-mode:soft-light" fill="#FFF">
                            <path d="M59.04 65.178c-1.063 1.515-4.397 3.458-2.127 7.273 2.27 3.816-.156 4.525-1.695 4.167-1.54-.358-6.351-.55-5.55 1.634.802 2.185 2.174 3.007.415 3.851-1.759.844-2.503 3.036-4.305 6.057-1.8 3.021-6.028.408-4.78 3.44 1.249 3.031 2.234 2.74 2.128 4.854-.028.581.355 1.177.88 1.744-.67-.053-1.344-.12-2.015-.205-.234-.025-.468-.057-.709-.089l-.62-.089-.536-.085c-.039 0-.028 0-.07-.017-.43-.075-.653-.153-1.217-.234-.376-.355-.142-.745-.085-1.163.56-3.901-4.823-6.589-5.727-9.323-.904-2.734 0-4.358-.216-6.617-.216-2.258.528-5.251-.773-7.152-1.302-1.9-6.535-2.532-7.532-6.354-.996-3.823 1.33-9.535 2.238-10.507.907-.971-4.337-5.4-6.826-5.542-2.49-.142-1.5-5.188-5.727-4.422s-11.847-1.62-10.283-4.163C5.205 40.14 7.383 35.52.273 33.46c.227-.734.507-1.461.71-2.181.563-1.199.942-2.376 1.46-3.546.21-.461.443-.918.663-1.376 1.22-2.488 2.643-4.87 4.255-7.124l.444-.606c.595-.809 1.214-1.597 1.854-2.365.962-1.151 1.973-2.26 3.032-3.326 2.756-2.768 5.825-5.205 9.145-7.262 1.418.985 3.018 1.595 4.404.843 3.408-1.904 1.163-2.198-.234-2.269-.363-.024-.71-.156-.996-.38 2.637-1.379 5.394-2.517 8.237-3.4-.213 1.926-2.837 5.014-.904 4.635 2.237-.426 3.152-6.472 4.794-4.461 1.642 2.01-1.823 4.66 1.454 3.127 3.276-1.531 3.72-4.9 7.379-3.255 3.66 1.645 3.34 3.642 4.365 3.447 1.025-.195 4.326 2.028 2.326 3.858-2 1.83-3.865-.504-6.89-1.21-3.024-.705-2.95 1.774-4.343 2.348-1.394.575-8.241-2.755-9.93.227-1.687 2.982-2.414 5.021.1 4.947 2.514-.075 2.674-.71 2.482 1.138-.191 1.847.256 3.248 2.532 1.5 2.277-1.748 1.773-3.447 3.546-2.614 1.773.834 1.986.079 3.872-1.294 1.887-1.372 4.372-1.514 5.021 1.564.65 3.078-.46 3.766-3.78 3.922-3.319.156-3.695-.887-4.755 1.89-1.06 2.776-5.446 6.358-9.311 7.812-3.866 1.453-5.358 3.648-5.27 6.58.089 2.933-1.354 6.029-2.322 3.621-.968-2.407-3.688-6.524-6.465-3.787-2.776 2.738-7.61 7.585-2.255 8.472 5.354.886 2.553-4.1 5.252-3.1 2.698 1-1.71 3.213.092 4.007 1.801.795 2.56.426 2.546 2.887-.014 2.46.6 4.84 2.787 3.797 2.188-1.042 4.996-5.854 8.156-3.003s2.943 2.482 4.61 1.652c1.666-.83 2.72 1.66 3.4 2.791.68 1.131 3.351-.021 5.514 3.351 2.163 3.372 3.01 3.979 5.475 2.762 2.464-1.216 3.471-.312 4.117 1.394.645 1.706 2.16.039 2.89 2.287.73 2.248.376 1.9-.692 3.418zM67.487 24.297c-1.748-3.752 6.91-3.33 8.443-3.042 1.532.287 5.152-2.568 5.627-3.88.475-1.312 1.245-.709 3.986-.734 2.74-.025.319-.649-2.699-1.642-3.017-.992-.436-1.092-3.191-3.28-1.195-.96-.82-1.773-.021-2.382 6.373 5.154 11.39 11.788 14.613 19.325-.084-.028-.171-.044-.26-.046-1.918 0-2.34-4.255-3.329-5.078-.99-.823.029 2.33.266 3.624.238 1.294-.525.21-1.482 1.397-.958 1.188-2.695 1.216-2.837-.57-.142-1.788-1.418-3.547-3.971-4.355-2.553-.809-4.759-.146-6.833.656-2.075.801-6.553 3.723-8.312.007z" transform="translate(20.921) translate(2.128 1.773)"/>
                            <path d="M89.23 76.908c.174-1.287.458-2.62-.08-3.106-1.306-1.213-1.593-4.517-1.14-6.191.455-1.674 3.976-1.585 1.586-4.372-2.39-2.787-4.557-6.113-3.546-8.014 1.01-1.9.71-2.032-1.184-2.021-1.894.01-2.717.095-4.61-1.585-1.894-1.681-4.468 4.017-11.553-.557-7.085-4.574-3.05-12.443-.394-12.46 2.656-.018 5.802-1.408 3.603-4.667-2.198-3.259 1.227-3.73 2.894-2.99 1.666.742 4.627-1.237 7.645-2.127 3.017-.89 2.89 4.039 4.57 5.025 1.681.985 4.851.202 6.497-1.373 1.173-1.127 1.418.185 2.588 1.419 4.377 14.634 1.846 30.465-6.875 43.005v.014zM76.557 18.053s2.21-1 1.419-2.607c-.791-1.606-2.05-6.528-2.972-4.964-.922 1.564.44 4.581.142 5.886-.298 1.305-.326 1.986 1.411 1.685zM74.355 16.549c-.032-.518.295-2.617-1.358-2.553 0 0-2.393.996-.993 2.695 1.401 1.698 2.387.376 2.351-.142z" transform="translate(20.921) translate(2.128 1.773)"/>
                        </g>
                        <path fill="#E5E5E5" d="M100.178 49.998c.03 10.194-3.08 20.15-8.905 28.517-.02.028-.033.06-.035.096-9.375 13.423-24.736 21.396-41.109 21.336-1.389-.004-2.776-.102-4.152-.295v.124c-.674-.056-1.337-.063-2-.145-.238-.028-.472-.028-.71-.06-.237-.032-.414-.043-.62-.075-.205-.032-.354-.042-.539-.074h-.12c-.436-.071-.869-.146-1.305-.23C19.09 95.025 2.736 77.27.355 55.408 5.477 69.94 17.908 80.674 33.03 83.625c.36.133.742.205 1.127.212l.107.025.464.071c.177.028.355.05.536.074.18.025.404.047.61.071.57.071 1.145.199 1.723.249v.053c1.177 0 2.35.096 3.546.096 14.147-.004 27.395-6.94 35.46-18.564 0-.028.05-.067.067-.095 7.504-10.813 9.679-24.453 5.907-37.063 0 0-.017 0-.017-.021-.412-1.542-.95-3.048-1.607-4.503C76.087 12.81 66.554 4.03 54.774.117c9.819.9 19.149 4.696 26.808 10.904 6.393 5.15 11.431 11.782 14.677 19.322.709 1.695 1.184 3.436 1.936 5.216 0 0-.057 0-.053.021 1.377 4.681 2.063 9.539 2.036 14.418z" opacity=".5" style="mix-blend-mode:multiply" transform="translate(20.921)"/>
                    </g>
                    <path fill="#253B64" fill-rule="nonzero" d="M56.026 48.58c-.083 0-.163-.029-.227-.082-.072-.06-.118-.146-.126-.24-.01-.094.02-.187.08-.26.022-.025.51-.617 1.447-1.606.067-.067.157-.105.252-.105.094 0 .185.038.252.105.137.138.137.362 0 .5-.915.971-1.419 1.567-1.419 1.574-.067.072-.16.113-.259.114zm2.926-3.11c-.095 0-.186-.039-.252-.106-.067-.067-.105-.158-.105-.252 0-.095.038-.185.105-.252.5-.49 1.025-.986 1.553-1.475.093-.086.225-.116.346-.079.121.038.213.137.241.261.029.124-.012.253-.105.34-.524.481-1.042.974-1.539 1.46-.065.065-.153.102-.244.103zm3.134-2.89c-.102 0-.198-.044-.266-.12-.128-.148-.112-.372.036-.5.535-.465 1.088-.93 1.638-1.38.153-.124.377-.101.502.051.124.153.101.378-.052.502-.55.443-1.095.9-1.624 1.362-.065.056-.148.086-.234.085zm3.305-2.688c-.153.002-.29-.095-.34-.24-.048-.146.001-.306.124-.398.567-.433 1.145-.862 1.72-1.273.16-.115.382-.078.496.081.115.16.078.382-.081.497-.571.408-1.142.83-1.703 1.259-.061.048-.137.074-.216.074zm3.461-2.482c-.155-.001-.292-.104-.337-.253-.045-.149.013-.31.142-.396.592-.397 1.199-.79 1.794-1.163.167-.104.386-.053.49.113.103.167.053.386-.114.49-.592.354-1.188.755-1.773 1.149-.06.04-.13.06-.202.06zm3.613-2.252c-.161.001-.303-.107-.345-.263-.041-.156.028-.32.168-.4.614-.354 1.245-.709 1.872-1.039.17-.076.37-.008.458.157.088.164.034.368-.124.467-.62.33-1.241.678-1.851 1.029-.054.031-.115.049-.178.05zm3.773-2.003c-.135 0-.26-.077-.319-.199-.041-.085-.047-.183-.016-.272.032-.09.097-.162.183-.203.638-.312 1.294-.617 1.94-.9.117-.066.26-.06.372.016.11.076.17.208.151.34-.018.134-.11.245-.236.289-.639.283-1.284.585-1.919.893-.048.024-.102.036-.156.036zm3.9-1.72c-.17 0-.316-.12-.348-.288-.032-.167.06-.334.218-.396.663-.263 1.336-.515 2.007-.752.089-.032.187-.026.272.015.086.041.151.115.182.205.063.185-.035.386-.22.45-.66.234-1.327.482-1.979.741-.05.02-.103.029-.156.025h.025zm4.015-1.418c-.196.028-.378-.108-.406-.304-.029-.195.107-.377.303-.406.684-.205 1.38-.404 2.064-.578.189-.05.382.063.432.252.024.091.01.188-.037.27-.048.08-.127.14-.218.163-.674.174-1.358.354-2.032.574-.04.022-.085.035-.131.04l.025-.011zm23.116-.99h-.078c-.688-.152-1.383-.29-2.07-.411-.128-.022-.233-.11-.278-.23-.044-.12-.021-.255.06-.354.082-.1.211-.147.338-.125.709.12 1.418.262 2.106.415.196.021.337.197.316.393-.022.196-.198.337-.394.316v-.004zm-18.996-.074c-.196.02-.371-.122-.392-.318-.02-.195.122-.37.318-.391.709-.15 1.418-.28 2.106-.398.196-.032.38.1.413.297.033.195-.1.38-.296.413-.691.113-1.39.244-2.078.39-.03.012-.063.018-.096.017l.025-.01zm14.805-.65h-.043c-.71-.084-1.4-.155-2.1-.208-.195-.015-.342-.186-.327-.382.015-.195.185-.342.381-.328.71.054 1.419.128 2.128.217.196.013.344.182.331.377-.012.196-.182.345-.377.332l.007-.007zm-10.61-.038c-.196.01-.363-.14-.374-.335-.01-.196.14-.364.335-.374.71-.082 1.419-.15 2.128-.199.094-.007.187.024.258.086.071.062.115.15.121.244.007.094-.024.187-.086.258-.062.071-.15.115-.244.121-.709.046-1.418.114-2.099.195l-.039.004zm6.383-.284c-.71-.021-1.418-.021-2.128 0-.196 0-.354-.159-.354-.354 0-.196.158-.355.354-.355.71-.014 1.425-.014 2.146 0 .195 0 .354.159.354.355 0 .195-.159.354-.354.354h-.018zM119.634 37.736c-.196 0-.355-.159-.355-.354v-.23c-.018-.196.125-.369.32-.387.194-.019.367.124.386.319v.298c0 .194-.157.352-.351.354zm-.525-2.322c-.147-.001-.278-.093-.33-.23-.244-.647-.54-1.273-.883-1.873-.063-.11-.063-.246.001-.356.064-.11.181-.178.308-.177.128 0 .245.068.308.178.361.632.672 1.291.93 1.972.033.088.03.186-.01.272-.04.086-.111.153-.2.185-.04.017-.081.027-.124.029zm-2.067-3.702c-.112 0-.217-.053-.284-.142-.4-.543-.847-1.085-1.326-1.617-.064-.07-.097-.163-.093-.257.005-.095.047-.184.118-.247.146-.13.37-.117.5.029.496.55.957 1.11 1.372 1.67.056.075.08.17.066.263-.014.094-.065.177-.14.233-.062.045-.137.069-.213.068zm-2.837-3.163c-.09 0-.178-.034-.245-.096-.493-.468-1.025-.936-1.574-1.39-.107-.078-.162-.208-.143-.339.02-.13.11-.24.234-.283.124-.044.263-.014.36.076.563.464 1.106.943 1.613 1.418.104.1.136.253.083.387-.054.134-.184.222-.328.223v.004zm-3.273-2.713c-.075 0-.148-.023-.21-.067-.549-.405-1.13-.812-1.726-1.206-.079-.052-.134-.133-.152-.226-.019-.092 0-.189.053-.267.108-.162.326-.206.489-.1.606.401 1.199.816 1.773 1.228.122.091.172.25.124.395-.049.145-.184.243-.337.243h-.014zm-3.546-2.351c-.063-.001-.126-.018-.18-.05-.59-.354-1.206-.709-1.83-1.063-.083-.046-.144-.123-.17-.213-.026-.09-.014-.187.031-.27.095-.17.308-.23.479-.138.635.355 1.259.71 1.854 1.064.082.048.14.127.163.22.022.091.007.188-.042.27-.06.106-.172.175-.294.18h-.011zm-3.72-2.06c-.055-.001-.11-.015-.16-.04l-.453-.23c-.486-.305-.94-.585-1.4-.858-.17-.1-.225-.317-.125-.486.048-.082.127-.14.219-.164.092-.023.19-.009.27.04.461.277.926.56 1.387.851l.425.217c.146.074.222.24.183.399-.039.16-.182.271-.346.27zm-3.68-2.128c-.06 0-.119-.016-.17-.046-.614-.333-1.245-.663-1.873-.979-.126-.048-.214-.163-.227-.298-.012-.135.053-.265.168-.335.115-.07.26-.07.375.002.638.316 1.276.65 1.897.99.143.077.215.242.175.4-.04.157-.183.267-.345.266zm-3.805-1.904c-.052.001-.103-.01-.15-.032-.634-.287-1.286-.574-1.939-.84-.18-.076-.267-.284-.191-.465.075-.181.283-.267.464-.191.656.273 1.316.56 1.961.85.152.07.235.235.2.398-.035.163-.179.28-.345.28zm-3.93-1.628c-.043 0-.086-.007-.127-.02-.656-.25-1.326-.487-1.993-.71-.185-.064-.283-.265-.22-.45.063-.185.262-.285.447-.224.674.227 1.351.468 2.018.71.162.058.259.226.228.396-.03.17-.18.293-.352.291v.007zm-4.03-1.361c-.035.005-.07.005-.104 0-.666-.202-1.35-.397-2.035-.582-.189-.05-.301-.244-.252-.432.024-.092.084-.17.166-.217.082-.047.179-.06.27-.035.692.188 1.383.383 2.057.588.187.057.293.253.238.44-.05.14-.181.236-.33.238h-.01zm-4.11-1.1c-.028.004-.055.004-.082 0-.681-.16-1.376-.312-2.068-.453-.195-.04-.322-.23-.283-.426.039-.196.23-.323.425-.284.71.142 1.401.298 2.089.458.196.022.336.2.314.395-.023.196-.2.337-.396.314v-.004zm-35.886-.184c-.167.005-.314-.107-.354-.27-.047-.19.069-.381.258-.428.029 0 .766-.192 2.103-.447.196-.037.384.093.42.289.037.196-.093.384-.289.42-1.315.248-2.053.433-2.063.436-.025.003-.05.003-.075 0zm31.726-.67h-.06c-.685-.12-1.387-.234-2.093-.333-.093-.014-.176-.065-.232-.14-.056-.077-.08-.172-.065-.265.029-.192.208-.325.4-.298.71.103 1.419.217 2.11.337.196.017.341.19.325.385-.017.196-.19.341-.385.325v-.011zm-27.545-.135c-.196.015-.367-.132-.381-.328-.015-.196.132-.366.328-.381.709-.11 1.418-.213 2.127-.305.127-.016.253.036.33.137.078.102.096.237.046.355-.049.118-.157.2-.284.217-.709.092-1.418.195-2.095.302l-.071.003zm23.336-.479h-.043c-.709-.081-1.418-.156-2.106-.22-.094-.008-.181-.053-.242-.125-.06-.073-.09-.167-.08-.26.018-.196.191-.339.386-.32.709.064 1.418.138 2.127.22.127.007.24.08.298.194.057.113.05.248-.02.355-.07.106-.19.167-.317.16l-.003-.004zm-19.116-.07c-.183 0-.337-.138-.355-.32-.01-.093.018-.187.077-.26.06-.073.145-.12.239-.13.709-.074 1.418-.138 2.127-.198.196-.016.367.13.383.326.016.196-.13.367-.326.383-.71.057-1.419.12-2.11.195l-.035.004zm14.893-.313h-.025c-.71-.042-1.419-.081-2.128-.11-.196-.007-.348-.172-.34-.368.008-.196.173-.348.369-.34.709.024 1.418.063 2.127.11.196.005.35.169.344.365-.006.195-.17.35-.365.343h.018zm-10.638-.031c-.19 0-.345-.148-.355-.337-.01-.195.139-.361.333-.373.71-.042 1.419-.074 2.128-.099.196 0 .355.159.355.355 0 .196-.16.354-.355.354-.71.025-1.418.057-2.128.096l.022.004zm6.382-.139h-2.127c-.196 0-.355-.158-.355-.354 0-.196.159-.355.355-.355h2.127c.196 0 .355.159.355.355 0 .196-.159.354-.355.354zM80.958 77.56c-5.07.536-6.67 2.341-8.684 1.065-1.83-1.146-1.064-2.997-3.035-4.309-2.734-1.836-6.029.557-7.316-1.003-1.01-1.22.94-2.759.589-5.975-.415-3.826-3.493-4.638-3.053-7.698.308-2.16 2.106-3.614 2.237-3.717 1.394-1.092 2.075-.517 3.362-1.517 1.865-1.447 1.064-3.15 2.975-4.83.149-.131 2.039-1.773 4.035-1.322 1.55.333 1.529 1.546 2.837 1.868 2.33.578 3.635-3.014 6.546-2.986 2.301.018 2.397 2.27 5.198 2.812 3.458.667 5.979-2.233 7.333-1.063.866.744-.106 1.993.894 3.407 1.092 1.553 2.748.745 4.564 2.373 1.063.957 2.02 2.61 1.957 4.3-.064 1.692-1.085 2.1-.858 3.59.227 1.489 1.27 1.514 1.532 2.907.301 1.57-.66 3.415-1.94 4.415-1.755 1.372-3.34.55-4.315 1.922-.73 1.025-.082 1.815-.71 3.02-.627 1.207-1.922 1.848-4.464 2.38-4.425.93-5.482-.081-9.684.362z"/>
                    <g opacity=".3" style="mix-blend-mode:multiply" fill="url(#po6v89j2ja)" fill-rule="nonzero" transform="translate(59.218 48.225)">
                        <path d="M38.19 20.882c-2.932-.578-3.209-3.298-6.305-4.152-5.319-1.465-9.733 5.095-12.386 3.478-2.535-1.546.915-7.886-2.56-11.676-2.56-2.791-6.464-1.568-7.322-3.642-.39-.94-.1-2.422 2.035-4.883-1.05.195-2.028.665-2.837 1.362-1.907 1.68-1.11 3.383-2.975 4.83-1.287 1-1.968.425-3.361 1.517-.132.103-1.93 1.557-2.238 3.716-.44 3.06 2.638 3.872 3.053 7.698.355 3.217-1.599 4.756-.588 5.975 1.287 1.56 4.581-.833 7.315 1.004 1.954 1.312 1.206 3.163 3.035 4.308 2.014 1.26 3.614-.546 8.684-1.063 4.202-.444 5.259.567 9.684-.355 2.543-.532 3.869-1.213 4.465-2.38.595-1.166-.029-1.996.709-3.02.975-1.373 2.56-.55 4.315-1.923.49-.389.91-.86 1.238-1.393-1.221.621-2.61.831-3.96.6z"/>
                    </g>
                    <path fill="#B2B2B2" fill-rule="nonzero" d="M62.054 93.535c1.727 2.699 9.972 13.918 21.63 13.759 11.756-.156 15.23-9.425 16.745-14.152.454-1.418.521-2.645-.092-5.347-.22-.965-1.085-3.312-1.862-5.32-.82-2.136-2.708-3.68-4.964-4.063-3.355-.582-8.301-1.309-11.475-1.195-3.014.103-8.78.84-12.567 2.223-3.397 1.238-5.27 4.71-6.603 8.07-.44 1.017-.816 2.06-1.124 3.125-.042 1.503-.092 2.27.312 2.9z"/>
                    <path fill="#EFEFEF" fill-rule="nonzero" d="M79.33 68.622s.71 7.67-4.918 9.286c-.62.178-1.131.99-.62 1.387 1.773 1.393 5.003 3.042 7.684 3.326 2.794.294 6.106-2.021 7.8-3.73.455-.458.561-1.23-.074-1.344-2.41-.426-6.737-1.773-6.294-8.624l-3.578-.301z"/>
                    <path fill="#EFEFEF" fill-rule="nonzero" d="M75.554 65.689s-.383 8.01 5.386 7.904c5.77-.106 5.348-6.929 5.025-8.702 0 0 .032-4.649-3.812-4.255-3.844.394-6.432 1.635-6.6 5.053z"/>
                    <path fill="#EFEFEF" fill-rule="nonzero" d="M85.518 67.728s.55-2.096 1.691-1.064c1.664 1.5-1.872 3.216-1.872 3.216l.181-2.152zM76.107 67.76s-.557-2.092-1.695-1.064c-1.656 1.507 1.883 3.21 1.883 3.21l-.188-2.146z"/>
                    <path fill="#112954" fill-rule="nonzero" d="M75.377 65.58c.025.07.092.116.166.116.075 0 .141-.047.167-.117.76-2.072 2.654-3.515 4.854-3.698 2.894-.305 4.436 1.819 5.11 3.145.065.13.208.202.351.176.144-.026.252-.145.266-.29.188-1.929-.081-5.641-5.014-5.634-6.22.025-6.386 4.74-5.9 6.301z"/>
                    <path fill="#B2B2B2" fill-rule="nonzero" d="M53.296 125.215c-16.099.153-19.365-3.638-21.928-7.124-2.358-3.191-3.344-14.747-.543-17.988 4.429-5.128 11.553-5.394 21.3-5.674 9.167-.273 14.816-.443 19.284 3.5 4.177 3.684 6.854 10.55 4.255 14.102-2.394 3.29-7 13.035-22.368 13.184z"/>
                    <path fill="#DBDBDB" fill-rule="nonzero" d="M46.746 94.415l-1.882.486c-.218.058-.395.217-.477.427-.081.21-.059.446.062.636 1.287 1.997 4.695 7.014 6.826 7.603 2.202.606 6.3-5.77 7.663-8.01.106-.184.125-.407.05-.606-.075-.2-.235-.355-.437-.423l-1.383-.44c-1.132-.356-2.323-.49-3.507-.393l-5.152.43c-.595.046-1.184.144-1.763.29z"/>
                    <path fill="#EFEFEF" fill-rule="nonzero" d="M48.133 87.092s1.064 7.447-.383 8.156l4.085 4.433 4.12-5.27s-1.563-1.173-1.163-7.34l-6.66.021z"/>
                    <path fill="#EFEFEF" fill-rule="nonzero" d="M45.708 76.433c-.15.199-2.043 9.592 4.58 10.564 6.625.971 6.901-5.972 6.802-8.915-.1-2.943-3.12-4.01-4.854-4.212-1.734-.203-6.007 1.854-6.528 2.563z"/>
                    <path fill="#EFEFEF" fill-rule="nonzero" d="M45.332 81.912s-.334-1.536-1.465-.575c-1.131.961.674 3.497 2.163 3.387l-.698-2.812zM56.902 80.823c-.191.131-.73 3.734-.73 3.734s.957.11 1.645-1.184c.688-1.295 1.018-3.862-.915-2.55z"/>
                    <path fill="#253B64" fill-rule="nonzero" d="M59.49 73.937c-.709-1.156-2.46-.606-2.974-1.72-.437-.936.578-1.822.032-2.631-.458-.677-1.571-.656-1.773-.652-1.504.024-1.848 1.216-2.922 1.191-1.309-.028-1.366-1.823-3.1-2.574-1.733-.752-4.134-.128-5.138 1.24-.77 1.065-.11 1.852-1.12 3.224-.71.947-1.312.99-1.656 1.911-.23.756-.205 1.566.07 2.305.416 1.468 1.185 2.128 2.348 3.677.732.986 1.392 2.023 1.975 3.103.458 1.213.848 2.45 1.167 3.706.372 1.464.355 1.773.71 2.234 1.201 1.634 3.932 1.471 5.08 1.4 1.316-.078 2.958-.177 3.78-1.322.444-.621.387-1.178.486-2.674.103-1.47.292-2.932.568-4.38.13-.632.308-1.254.532-1.861.478-1.28.978-1.486 1.517-2.808.433-1.068.99-2.43.419-3.37zM54.027 83.94c-.815.224-1.365.025-2.482-.035-2.205-.124-2.904.911-3.946.46-.433-.19-1.44-.709-1.653-1.733-.164-.857-.19-1.735-.074-2.6.17-1.276.354-2.744 1.386-3.397 1.475-.943 3.369.674 4.727-.379.44-.381.73-.907.819-1.482.301.103 2.698.971 3.589 3.528.416 1.217.412 2.538-.011 3.752-.528.895-1.366 1.566-2.355 1.886z"/>
                    <path fill="#EFEFEF" fill-rule="nonzero" d="M49.452 85.5c1.167.367 2.424.33 3.567-.106.15-.057.277.106.153.195-.591.467-1.325.718-2.078.71-.626-.062-1.231-.26-1.773-.579-.131-.088-.032-.262.131-.22zM101.89 86.979s-.273-1.546-1.443-.635c-1.17.912.531 3.521 2.02 3.475l-.577-2.84zM112.78 86.43c-.196.12-.883 3.698-.883 3.698s.95.152 1.69-1.114c.742-1.266 1.178-3.819-.808-2.585z"/>
                    <path fill="#C6C6C6" fill-rule="nonzero" d="M107.28 118.811c-16.088-.507-21.812 1.39-24.23-2.198-2.223-3.302-.053-8.865 2.88-11.996 4.634-4.94 11.765-4.912 21.513-4.798 9.17.103 14.822.167 19.123 4.29 4.021 3.855 6.411 10.823 3.677 14.266-2.531 3.198-7.599.922-22.963.436z"/>
                    <path fill="#B2B2B2" fill-rule="nonzero" d="M102.07 99.588l-1.9.408c-.218.05-.399.2-.489.405-.09.205-.078.44.032.634 1.205 2.05 4.404 7.202 6.506 7.88 2.174.709 6.532-5.504 7.986-7.688.122-.183.153-.411.083-.62-.069-.207-.23-.371-.438-.444l-1.365-.493c-1.115-.405-2.3-.588-3.486-.539l-5.162.216c-.595.032-1.185.112-1.766.241z"/>
                    <path fill="#EFEFEF" fill-rule="nonzero" d="M103.759 92.333s.74 7.486-.71 8.156l3.9 4.61 4.334-5.1s-1.514-1.233-.858-7.382l-6.666-.284z"/>
                    <path fill="#EFEFEF" fill-rule="nonzero" d="M101.77 81.578c-.157.196-2.128 12.766 4.464 14 6.592 1.234 6.822-8.936 6.854-11.883.032-2.946-2.954-4.13-4.68-4.404-1.728-.273-6.086 1.603-6.639 2.287z"/>
                    <path fill="#253B64" fill-rule="nonzero" d="M101.801 85.181c.224-1.262.482-2.723 1.525-3.333 1.518-.883 3.34.812 4.74-.184.454-.365.766-.877.88-1.447 1.632.657 2.89 2.002 3.44 3.673.305 1.042.305 2.15 0 3.192l.174-.082.532-.273c.092-.28.212-.613.354-.968.532-1.262 1.036-1.447 1.631-2.748.475-1.042 1.089-2.39.557-3.354-.649-1.185-2.433-.71-2.9-1.84-.398-.955.652-1.795.141-2.628-.429-.71-1.546-.71-1.74-.71-1.508-.035-1.898 1.142-2.969 1.064-1.308-.085-1.29-1.88-2.993-2.698-1.702-.82-4.13-.302-5.177 1.032-.815 1.035-.188 1.847-1.255 3.191-.734.915-1.351.933-1.73 1.84-.262.745-.271 1.555-.025 2.305.354 1.486 1.095 2.163 2.195 3.773.209.309.454.681.709 1.117.581.255 1.17.5 1.773.71-.008-.548.038-1.094.138-1.632zM30.14 21.985c-.131 0-.252-.074-.313-.19-.061-.117-.052-.258.023-.367.325-.458.68-.894 1.064-1.305.132-.145.357-.155.501-.023.145.133.156.357.024.502-.359.388-.692.8-.997 1.23-.068.099-.182.156-.301.153zm2.554-2.748c-.102 0-.199-.044-.266-.12-.128-.149-.112-.372.035-.5.514-.451 1.064-.905 1.685-1.352.157-.116.38-.083.496.075.117.157.083.38-.074.496-.589.436-1.142.876-1.642 1.312-.065.057-.148.089-.234.089zm3.418-2.539c-.157 0-.295-.104-.34-.255-.043-.15.017-.312.149-.398 1.063-.709 1.822-1.092 1.854-1.11.112-.07.255-.071.369-.004.114.067.18.193.173.325-.007.132-.088.25-.209.304 0 0-.758.407-1.804 1.081-.057.037-.124.057-.192.057z"/>
                    <path fill="#DBDBDB" fill-rule="nonzero" d="M123.893 77.88c-.696.94-.777 2.2-.21 3.223 0 0-1.368-1.173-2.68-.61 0 0 1.106-1.273.031-2.585 0 0 1.777 1.362 2.859-.028zM126.853 65.6s.84 2.337 3.348 2.146c0 0-1.876 1.02-1.536 2.96 0 0-1.301-2.092-3.273-1.517 0 0 2.096-.997 1.461-3.589z"/>
                    <rect width="16.673" height="16.673" x="104.599" y="16.865" fill="#0AB822" fill-rule="nonzero" rx="8.337"/>
                    <path fill="#FFF" d="M110.418 22.627c-.002-1.372 1.095-2.493 2.467-2.52 1.372-.028 2.513 1.048 2.566 2.419.054 1.37-1 2.532-2.37 2.611h-.287c-1.332-.075-2.375-1.176-2.376-2.51M110.684 30.29c-.643-.003-1.229-.369-1.512-.946-.284-.576-.216-1.264.175-1.774.851-1.123 2.18-1.783 3.588-1.783 1.41 0 2.738.66 3.589 1.783.39.51.459 1.198.175 1.774-.283.577-.87.943-1.512.946h-4.503z"/>
                    <rect width="14.386" height="14.386" x="37.58" y="4.61" fill="#0AB822" fill-rule="nonzero" rx="7.193"/>
                    <path fill="#FFF" d="M42.601 9.574c-.002-1.185.946-2.153 2.13-2.177 1.185-.024 2.17.906 2.216 2.09.046 1.184-.865 2.186-2.048 2.254h-.248c-1.15-.066-2.048-1.016-2.05-2.167M42.832 16.198c-.556 0-1.062-.317-1.307-.815-.245-.499-.185-1.093.154-1.532.738-.965 1.883-1.53 3.098-1.53 1.214 0 2.359.565 3.097 1.53.337.44.395 1.034.15 1.531-.246.498-.751.814-1.306.816h-3.886z"/>
                    <rect width="20.414" height="20.414" x="40.772" y="39.006" fill="#0AB822" fill-rule="nonzero" rx="10.207"/>
                    <path fill="#FFF" d="M47.895 46.062c-.003-1.681 1.341-3.056 3.023-3.09 1.68-.034 3.08 1.284 3.145 2.964.065 1.68-1.227 3.104-2.905 3.2h-.355c-1.63-.093-2.905-1.441-2.908-3.074M48.225 55.448c-.787-.002-1.505-.452-1.852-1.159-.347-.707-.263-1.55.217-2.174 1.044-1.373 2.67-2.18 4.394-2.18 1.725 0 3.35.807 4.393 2.18.48.624.565 1.467.218 2.174-.347.707-1.065 1.157-1.852 1.16h-5.518z"/>
                </g>
            </g>
        </g>
    </g>
</svg>
