<svg xmlns="http://www.w3.org/2000/svg" width="120" height="125" viewBox="0 0 120 125">
    <g fill="none" fill-rule="evenodd">
        <g>
            <g>
                <g transform="translate(-128 -182) translate(0 116) translate(128 66)">
                    <g fill="#000" fill-rule="nonzero" opacity=".05">
                        <g>
                            <path d="M67.398 1.186C44.385 7.918 48.996 24.014 46.421 41.81 43.216 64.016 29.324 52.631 13.38 64.621c-27.574 20.733-7.573 66.473 26.698 59.548 18.183-3.694 21.877-17.098 29.315-31.419 9.592-18.511 25.504-13.463 39.774-25.58 28.937-24.527-9.12-75.584-41.768-65.984"/>
                        </g>
                    </g>
                    <path fill="#DDD" d="M69.35 107.854H25.89c-3.942-.01-7.138-3.142-7.151-7.012V14.5c.013-3.87 3.209-7.002 7.152-7.011h43.46c3.942.009 7.137 3.141 7.151 7.011v86.342c-.014 3.87-3.209 7.003-7.152 7.012"/>
                    <path fill="#E8E8E8" d="M76.435 17.333H18.739V14.38c0-3.806 3.085-6.891 6.89-6.891h43.906c1.83-.003 3.584.722 4.879 2.015 1.294 1.293 2.021 3.047 2.021 4.876v2.953z"/>
                    <path fill="#D1D1D1" d="M51.621 13.85H43.3c-.434.037-.852-.173-1.08-.544-.229-.37-.229-.839 0-1.21.228-.37.646-.58 1.08-.543h8.321c.434-.037.852.173 1.08.544.229.37.229.838 0 1.209-.228.37-.646.581-1.08.544M58.008 12.714c0 .46-.278.875-.703 1.05-.426.175-.915.077-1.24-.25-.324-.327-.419-.816-.24-1.24.178-.425.595-.7 1.055-.696.624.005 1.128.512 1.128 1.136"/>
                    <path fill="#E9E9E9" d="M47.583 30.518c-9.554 0-18.167 5.756-21.822 14.583-3.655 8.826-1.633 18.986 5.124 25.74 6.756 6.754 16.916 8.773 25.742 5.115 8.825-3.659 14.578-12.274 14.574-21.827-.014-13.037-10.581-23.601-23.618-23.61m0 48.802c-13.904 0-25.176-11.271-25.176-25.175S33.68 28.97 47.583 28.97c13.904 0 25.175 11.272 25.175 25.176-.037 13.888-11.287 25.138-25.175 25.175"/>
                    <path fill="#E9E9E9" d="M47.583 36.762c-9.59.004-17.362 7.782-17.359 17.372.003 9.59 7.78 17.363 17.37 17.362 9.59-.002 17.364-7.777 17.364-17.367-.01-9.591-7.784-17.363-17.375-17.367m0 36.299c-10.456 0-18.933-8.476-18.933-18.932 0-10.456 8.477-18.932 18.933-18.932 10.455 0 18.932 8.476 18.932 18.932-.014 10.45-8.482 18.918-18.932 18.932"/>
                    <path fill="#E9E9E9" d="M47.583 43.24c-6.014 0-10.888 4.876-10.888 10.889 0 6.013 4.874 10.888 10.888 10.888 6.013 0 10.888-4.875 10.888-10.888-.028-6.002-4.887-10.86-10.888-10.888m0 23.332c-6.872-.004-12.44-5.578-12.437-12.45.003-6.872 5.576-12.44 12.448-12.439 6.872.002 12.442 5.573 12.442 12.445-.01 6.872-5.581 12.44-12.453 12.444"/>
                    <g>
                        <path fill="#0AB81F" d="M40.986.05H62.56c4.746-.002 9.298 1.882 12.655 5.237 3.356 3.355 5.242 7.906 5.242 12.652 0 9.884-8.013 17.897-17.897 17.897H18.562c-4.746 0-9.297-1.886-12.652-5.242C2.555 27.237.67 22.685.673 17.939.673 8.06 8.683.05 18.562.05H29.5" transform="translate(35.34 58.9)"/>
                        <path fill="#6756D6" fill-rule="nonzero" d="M62.56.05c4.746-.002 9.298 1.882 12.655 5.237 3.356 3.355 5.242 7.906 5.242 12.652 0 9.884-8.013 17.897-17.897 17.897H18.562c-4.746 0-9.297-1.886-12.652-5.242C2.555 27.237.67 22.685.673 17.939.673 8.06 8.683.05 18.562.05H62.56z" transform="translate(35.34 58.9)"/>
                    </g>
                    <path fill="#FFF" d="M90.807 38.224c.003 5.804-3.492 11.037-8.854 13.257-5.362 2.22-11.533.989-15.633-3.12-4.1-4.107-5.318-10.281-3.087-15.639 2.231-5.357 7.472-8.841 13.275-8.826 7.902.017 14.299 6.427 14.299 14.328"/>
                    <path fill="#FFF" fill-rule="nonzero" d="M95.687 70.057c.622 0 1.127.505 1.127 1.127v3.698l3.2-1.847c.54-.311 1.229-.126 1.54.413l.004.007c.312.54.127 1.229-.412 1.54l-3.202 1.847 3.202 1.85c.54.31.724 1 .413 1.54l-.004.007c-.312.54-1.001.724-1.54.412l-3.2-1.848v3.699c0 .622-.506 1.127-1.128 1.127h-.009c-.622 0-1.127-.505-1.127-1.127v-3.7l-3.206 1.852c-.54.311-1.23.127-1.54-.413l-.005-.007c-.311-.54-.126-1.229.413-1.54l3.205-1.852-3.205-1.85c-.539-.31-.724-1-.412-1.54l.004-.007c.311-.539 1-.724 1.54-.412l3.205 1.85v-3.699c0-.622.506-1.127 1.128-1.127h.009zM75.815 69.778c.623 0 1.128.504 1.128 1.127v3.698l3.2-1.847c.539-.312 1.228-.127 1.54.413l.004.007c.311.54.127 1.229-.413 1.54l-3.201 1.847 3.202 1.849c.539.311.724 1 .412 1.54l-.004.007c-.311.54-1 .724-1.54.413l-3.2-1.848v3.698c0 .623-.505 1.128-1.128 1.128h-.008c-.623 0-1.128-.505-1.128-1.128v-3.7l-3.206 1.853c-.539.31-1.229.126-1.54-.413l-.004-.007c-.311-.54-.127-1.23.413-1.54l3.205-1.852-3.205-1.85c-.54-.31-.724-1-.413-1.54l.005-.007c.31-.54 1-.724 1.54-.413l3.205 1.85v-3.698c0-.623.505-1.127 1.128-1.127h.008zM56.131 70.057c.623 0 1.128.505 1.128 1.127v3.698l3.206-1.851c.54-.311 1.23-.127 1.54.413l.005.007c.311.54.126 1.229-.413 1.54l-3.2 1.847 3.198 1.846c.54.312.724 1.001.413 1.54l-.005.008c-.31.54-1 .724-1.54.413l-3.205-1.851v3.708c0 .622-.504 1.127-1.127 1.127h-.008c-.623 0-1.128-.505-1.128-1.127v-3.7l-3.199 1.848c-.54.311-1.229.126-1.54-.413l-.004-.007c-.312-.54-.127-1.23.412-1.54l3.205-1.852-3.207-1.852c-.539-.311-.724-1-.412-1.54l.004-.007c.311-.54 1-.724 1.54-.413l3.201 1.848v-3.69c0-.622.505-1.127 1.128-1.127h.008z"/>
                    <path fill="#6756D6" fill-rule="nonzero" d="M79.843 33.577l-.298-.837c-.65-1.951-2.686-3.052-4.646-2.511-.991.315-1.814 1.024-2.28 1.965-.467.941-.538 2.034-.197 3.028l1.382 3.894c.077.188.073.4-.01.584-.084.185-.24.326-.431.39-.184.077-.392.075-.574-.008-.182-.083-.322-.24-.386-.43l-1.325-3.72c-.966-2.594.162-5.51 2.611-6.745 1.332-.64 2.87-.681 4.233-.112 1.364.569 2.427 1.695 2.929 3.1l.345.974c.076.192.068.407-.022.593-.09.185-.252.324-.448.38-.189.05-.39.02-.555-.083-.167-.102-.285-.269-.328-.462z"/>
                    <rect width="10.514" height="15.294" x="71.689" y="33.455" fill="#6756D6" fill-rule="nonzero" rx="1.933" transform="rotate(-89.9 76.947 41.102)"/>
                    <path fill="#FFF" fill-rule="nonzero" d="M78.38 39.651c0-.782-.642-1.417-1.433-1.417-.792 0-1.434.635-1.434 1.417.007.44.223.85.582 1.108l-.47 3.21h2.62l-.447-3.21c.36-.257.577-.668.582-1.108z"/>
                    <path fill="#6756D6" d="M99.288 29.685l-4.99.48c-.627.028-1.113.56-1.085 1.186.028.628.559 1.114 1.186 1.086h.11l4.998-.471c.59-.102 1.002-.641.945-1.238-.057-.596-.565-1.047-1.164-1.034M95.544 21.364c-.194-.233-.472-.38-.774-.407-.302-.027-.602.068-.833.264l-3.686 3.063c-.37.306-.507.812-.343 1.263.164.452.595.75 1.075.748.265 0 .52-.092.724-.261l3.685-3.072c.483-.4.551-1.115.152-1.598M85.707 14.817c-.301-.018-.598.086-.823.288-.224.203-.358.487-.371.79l-.27 5.292c-.016.301.089.597.291.821.202.224.485.359.786.374h.06c.606.005 1.108-.471 1.135-1.077l.27-5.293c.018-.302-.086-.598-.288-.823-.203-.225-.487-.359-.79-.372"/>
                </g>
            </g>
        </g>
    </g>
</svg>
