<svg xmlns="http://www.w3.org/2000/svg" width="80" height="80" viewBox="0 0 80 80">
    <g fill="none" fill-rule="evenodd">
        <g>
            <g transform="translate(-148.000000, -696.000000) translate(148.000000, 696.000000)">
                <circle cx="40" cy="40" r="37" stroke="#FFF" stroke-width="6"/>
                <circle cx="40" cy="40" r="32" fill="#FFF"/>
                <path fill="#6756D6" d="M45.365 27c.632 0 1.178.443 1.31 1.061l.548 2.604h5.412c1.889 0 3.365 1.204 3.365 2.739v17.462c0 1.538-1.476 2.74-3.365 2.74h-25.27c-1.886 0-3.365-1.202-3.365-2.74V33.404c0-1.535 1.476-2.739 3.365-2.739h5.412l.549-2.604c.131-.618.677-1.061 1.31-1.061zM40 35.574c-3.565 0-6.468 2.9-6.468 6.465 0 3.568 2.903 6.468 6.468 6.468 3.566 0 6.465-2.9 6.465-6.468 0-3.565-2.9-6.465-6.465-6.465zm0 2.673c2.089 0 3.791 1.703 3.791 3.792 0 2.091-1.702 3.79-3.79 3.79-2.093 0-3.792-1.699-3.792-3.79 0-2.09 1.7-3.792 3.791-3.792z"/>
            </g>
        </g>
    </g>
</svg>
