<svg xmlns="http://www.w3.org/2000/svg" width="24" height="25" viewBox="0 0 24 25">
    <defs>
        <filter id="unspuxgbqa" color-interpolation-filters="auto">
            <feColorMatrix in="SourceGraphic" values="0 0 0 0 0.403922 0 0 0 0 0.337255 0 0 0 0 0.839216 0 0 0 1.000000 0"/>
        </filter>
    </defs>
    <g fill="none" fill-rule="evenodd">
        <g filter="url(#unspuxgbqa)" transform="translate(-2806.000000, -7574.000000)">
            <g>
                <path fill="#CBCBCB" d="M20.49 22.209c.295 0 .557-.066.786-.197.23-.13.407-.313.534-.546.127-.233.19-.493.19-.779 0-.196-.035-.388-.104-.577-.07-.188-.178-.351-.325-.49l-5.244-5.264.2-.28c.242-.36.46-.738.652-1.134l.183-.402c.466-1.088.7-2.254.7-3.497 0-1.243-.234-2.411-.7-3.503-.466-1.092-1.115-2.053-1.945-2.884-.83-.83-1.791-1.48-2.883-1.95S10.274 0 9.03 0C7.787 0 6.62.235 5.534.706c-1.088.47-2.05 1.12-2.884 1.95-.834.83-1.484 1.79-1.95 2.878C.232 6.622 0 7.79 0 9.043c0 1.243.233 2.409.7 3.497.466 1.088 1.114 2.049 1.944 2.883.83.835 1.792 1.485 2.884 1.951 1.092.466 2.26.7 3.503.7 1.243 0 2.41-.234 3.503-.7.485-.207.945-.45 1.378-.73l.217-.147 5.282 5.27c.11.116.232.209.366.277l.137.06c.188.07.38.105.577.105zM9.03 15.877c-.932 0-1.813-.178-2.643-.533-.83-.356-1.559-.85-2.185-1.479-.625-.63-1.116-1.356-1.472-2.178-.356-.822-.534-1.703-.534-2.644 0-.933.178-1.812.534-2.638.356-.826.847-1.554 1.472-2.184.626-.63 1.354-1.125 2.185-1.485.83-.36 1.711-.54 2.644-.54.94 0 1.824.18 2.65.54.826.36 1.552.855 2.178 1.485.626.63 1.116 1.358 1.472 2.184.356.826.534 1.705.534 2.638 0 .94-.178 1.822-.534 2.644-.356.822-.846 1.548-1.472 2.178-.626.63-1.352 1.123-2.178 1.479-.826.355-1.71.533-2.65.533z" transform="translate(2806.000000, 7574.291525) translate(1.341797, 0.941406)"/>
            </g>
        </g>
    </g>
</svg>
