<svg xmlns="http://www.w3.org/2000/svg" width="143" height="121" viewBox="0 0 143 121">
    <g fill="none" fill-rule="evenodd">
        <g>
            <g>
                <path fill="#000" fill-rule="nonzero" d="M101.7 106.545S50 129.505 11.04 84.098c-32.943-38.405 15.235-89.487 47.895-61.82 22.382 18.966 36.723 17.4 55.54 15.95 29.842-2.246 50.325 41.04-12.774 68.317z" opacity=".05" transform="translate(-116.000000, -211.000000) translate(116.000000, 211.000000)"/>
                <path fill="#DDD" fill-rule="nonzero" d="M102.82 42.354h12.434c.74-.002 1.45.29 1.975.813.524.522.819 1.231.819 1.971v26.258c-.005 1.539-1.254 2.784-2.794 2.784H102.82c-1.537-.005-2.78-1.248-2.785-2.784V45.138c0-1.537 1.247-2.784 2.785-2.784zM72.132 42.354h12.434c.74-.002 1.45.29 1.972.813.523.523.816 1.232.814 1.971v26.258c0 1.538-1.247 2.784-2.786 2.784H72.132c-1.538 0-2.785-1.246-2.785-2.784V45.138c-.002-.739.29-1.448.813-1.971.523-.523 1.233-.815 1.972-.813zM121.52 79.93H35.204c-3.166.027-5.726 2.586-5.753 5.75v6.712c.022 3.168 2.584 5.732 5.753 5.759h86.318c3.169-.027 5.73-2.59 5.753-5.759v-6.711c-.027-3.165-2.587-5.724-5.753-5.75zM123.668 18.06L80.488.42c-1.377-.56-2.917-.56-4.294 0L33.09 18.051c-2.185.868-3.616 2.985-3.606 5.336v7.457c0 1.525.606 2.988 1.685 4.066 1.079 1.079 2.542 1.684 4.068 1.684h86.285c3.177 0 5.753-2.574 5.753-5.75v-7.457c.006-2.348-1.424-4.46-3.606-5.328zm-37.99 1.574c.003 3.108-1.868 5.912-4.74 7.103-2.873 1.191-6.18.535-8.379-1.663-2.198-2.198-2.855-5.504-1.664-8.375 1.192-2.87 3.997-4.74 7.106-4.737 4.24 0 7.676 3.435 7.676 7.672zM41.436 42.354h12.435c.74-.002 1.45.29 1.974.813.525.522.82 1.231.82 1.971v26.258c-.005 1.539-1.255 2.784-2.794 2.784H41.436c-1.536-.005-2.78-1.248-2.785-2.784V45.138c0-.738.294-1.446.816-1.969.522-.522 1.23-.815 1.97-.815z" transform="translate(-116.000000, -211.000000) translate(116.000000, 211.000000)"/>
                <g transform="translate(-116.000000, -211.000000) translate(116.000000, 211.000000) translate(23.348044, 20.711688)">
                    <path fill="#6756D6" fill-rule="nonzero" d="M40.939 53.394c-2.578 4.242-5.297 8.368-8.066 12.429-2.769 4.06-5.612 8.128-8.488 12.138-2.877 4.01-5.803 7.98-8.787 11.907-1.476 1.98-2.993 3.92-4.485 5.883-.718 1.018-1.584 1.923-2.57 2.685-.519.398-1.074.747-1.657 1.044-.657.338-1.357.583-2.081.729-1.138.23-2.32-.045-3.24-.754-.92-.71-1.485-1.783-1.551-2.942-.043-.736.015-1.475.174-2.195.135-.648.332-1.28.588-1.89.485-1.146 1.139-2.213 1.94-3.165 1.517-1.947 3.017-3.902 4.56-5.8 3.041-3.878 6.15-7.706 9.283-11.517 3.134-3.812 6.342-7.565 9.591-11.286 3.25-3.72 6.557-7.399 10.014-10.962 1.081-1.104 2.817-1.225 4.042-.283 1.224.943 1.55 2.652.758 3.979h-.025z"/>
                    <path fill="#6756D6" fill-rule="nonzero" d="M73.433 6.322c-9.73-7.502-23.023-8.406-33.68-2.29-10.657 6.115-16.58 18.045-15.005 30.226 1.574 12.182 10.335 22.216 22.197 25.424 11.862 3.207 24.489-1.044 31.992-10.77 10.245-13.281 7.78-32.348-5.504-42.59zM40.276 49.334C29.8 41.25 27.863 26.21 35.948 15.737c8.085-10.472 23.131-12.411 33.61-4.332 10.478 8.08 12.42 23.12 4.34 33.595-3.882 5.035-9.606 8.32-15.913 9.133-6.306.813-12.677-.914-17.71-4.8z"/>
                    <ellipse cx="54.882" cy="30.367" fill="#FFF" fill-rule="nonzero" opacity=".57" rx="23.973" ry="23.963"/>
                    <g fill="#6756D6">
                        <path d="M7.958 25.206c-1.831 0-3.316 1.483-3.316 3.314 0 1.83 1.485 3.314 3.316 3.314 1.831 0 3.316-1.484 3.316-3.314s-1.485-3.314-3.316-3.314M8.522 0C2.719 0 0 3.455 0 5.8c0 .678.276 1.328.766 1.797.49.47 1.15.718 1.829.689 2.337 0 1.384-3.314 5.802-3.314 2.164 0 3.888.944 3.888 2.933 0 2.336-2.42 3.679-3.846 4.888-1.963 1.6-3.042 4.043-2.902 6.571 0 2.254.605 2.9 2.38 2.9 2.122 0 2.553-.953 2.553-1.773 0-2.246.041-3.546 2.42-5.402 1.169-.912 4.85-3.853 4.85-7.913 0-4.06-3.681-7.135-9.218-7.135" transform="translate(45.406679, 12.991942)"/>
                    </g>
                </g>
            </g>
        </g>
    </g>
</svg>
