<?xml version="1.0" encoding="UTF-8"?>
<svg width="19px" height="19px" viewBox="0 0 19 19" version="1.1" xmlns="http://www.w3.org/2000/svg" xmlns:xlink="http://www.w3.org/1999/xlink">
    <title>_Glyphs / Nav &amp; Toolbar / QRcode</title>
    <g id="Working" stroke="none" stroke-width="1" fill="none" fill-rule="evenodd">
        <g id="_Glyphs-/-Small-/-ScanQRcode" transform="translate(-3.000000, -3.000000)" fill="#6756D6">
            <path d="M20.5234888,9.21254398 C21.07684,9.21254398 21.3535156,8.93265122 21.3535156,8.3728657 L21.3535156,6.14337508 C21.3535156,5.18466195 21.107403,4.46080136 20.6151778,3.97179331 C20.1229526,3.48278527 19.387832,3.23828125 18.4098159,3.23828125 L16.1899768,3.23828125 C15.6301912,3.23828125 15.3502985,3.51495685 15.3502985,4.06830806 C15.3502985,4.62165927 15.6301912,4.89833487 16.1899768,4.89833487 L18.3422556,4.89833487 C18.7733548,4.89833487 19.1063306,5.01254398 19.3411832,5.24096222 C19.5760357,5.46938045 19.693462,5.81200779 19.693462,6.26884425 L19.693462,8.3728657 C19.693462,8.93265122 19.9701376,9.21254398 20.5234888,9.21254398 Z M4.18354243,9.21254398 C4.73689364,9.21254398 5.01356924,8.93265122 5.01356924,8.3728657 L5.01356924,6.26884425 C5.01356924,5.81200779 5.13099552,5.46938045 5.36584806,5.24096222 C5.60070061,5.01254398 5.93367648,4.89833487 6.36477568,4.89833487 L8.5170545,4.89833487 C9.08327434,4.89833487 9.36638426,4.62165927 9.36638426,4.06830806 C9.36638426,3.51495685 9.08327434,3.23828125 8.5170545,3.23828125 L6.29721536,3.23828125 C5.32563359,3.23828125 4.59212152,3.48278527 4.09667916,3.97179331 C3.6012368,4.46080136 3.35351562,5.18466195 3.35351562,6.14337508 L3.35351562,8.3728657 C3.35351562,8.93265122 3.63019123,9.21254398 4.18354243,9.21254398 Z M11.557269,11.8377451 C11.6666524,11.8377451 11.7599499,11.8007477 11.8371617,11.7267531 C11.9143735,11.6527585 11.9529794,11.5578523 11.9529794,11.4420346 L11.9529794,8.26669948 C11.9529794,8.15088179 11.9143735,8.05597562 11.8371617,7.98198098 C11.7599499,7.90798634 11.6666524,7.87098902 11.557269,7.87098902 L8.38193386,7.87098902 C8.26611616,7.87098902 8.16960142,7.90798634 8.09238962,7.98198098 C8.01517782,8.05597562 7.97657193,8.15088179 7.97657193,8.26669948 L7.97657193,11.4420346 C7.97657193,11.5578523 8.01517782,11.6527585 8.09238962,11.7267531 C8.16960142,11.8007477 8.26611616,11.8377451 8.38193386,11.8377451 L11.557269,11.8377451 Z M16.3154459,11.8377451 C16.4312636,11.8377451 16.5277784,11.8007477 16.6049902,11.7267531 C16.682202,11.6527585 16.7208079,11.5578523 16.7208079,11.4420346 L16.7208079,8.26669948 C16.7208079,8.15088179 16.682202,8.05597562 16.6049902,7.98198098 C16.5277784,7.90798634 16.4312636,7.87098902 16.3154459,7.87098902 L13.1401108,7.87098902 C13.0242931,7.87098902 12.9277784,7.90798634 12.8505666,7.98198098 C12.7733548,8.05597562 12.7347489,8.15088179 12.7347489,8.26669948 L12.7347489,11.4420346 C12.7347489,11.5578523 12.7733548,11.6527585 12.8505666,11.7267531 C12.9277784,11.8007477 13.0242931,11.8377451 13.1401108,11.8377451 L16.3154459,11.8377451 Z M11.151907,11.0463241 L8.76799284,11.0463241 L8.76799284,8.65275846 L11.151907,8.65275846 L11.151907,11.0463241 Z M15.9197355,11.0463241 L13.5261698,11.0463241 L13.5261698,8.65275846 L15.9197355,8.65275846 L15.9197355,11.0463241 Z M10.4666524,10.351418 L10.4666524,9.34766463 L9.47255048,9.34766463 L9.47255048,10.351418 L10.4666524,10.351418 Z M15.2248293,10.351418 L15.2248293,9.34766463 L14.2307274,9.34766463 L14.2307274,10.351418 L15.2248293,10.351418 Z M11.557269,16.6055735 C11.6666524,16.6055735 11.7599499,16.5669676 11.8371617,16.4897558 C11.9143735,16.412544 11.9529794,16.3160292 11.9529794,16.2002115 L11.9529794,13.0345279 C11.9529794,12.9187102 11.9143735,12.8221955 11.8371617,12.7449837 C11.7599499,12.6677719 11.6666524,12.629166 11.557269,12.629166 L8.38193386,12.629166 C8.26611616,12.629166 8.16960142,12.6677719 8.09238962,12.7449837 C8.01517782,12.8221955 7.97657193,12.9187102 7.97657193,13.0345279 L7.97657193,16.2002115 C7.97657193,16.3160292 8.01517782,16.412544 8.09238962,16.4897558 C8.16960142,16.5669676 8.26611616,16.6055735 8.38193386,16.6055735 L11.557269,16.6055735 Z M13.8446684,13.7390855 L13.8446684,12.7449837 L12.8505666,12.7449837 L12.8505666,13.7390855 L13.8446684,13.7390855 Z M16.6049902,13.7390855 L16.6049902,12.7449837 L15.6012368,12.7449837 L15.6012368,13.7390855 L16.6049902,13.7390855 Z M11.151907,15.8141526 L8.76799284,15.8141526 L8.76799284,13.4205869 L11.151907,13.4205869 L11.151907,15.8141526 Z M10.4666524,15.1192464 L10.4666524,14.1251445 L9.47255048,14.1251445 L9.47255048,15.1192464 L10.4666524,15.1192464 Z M15.2248293,15.1192464 L15.2248293,14.1251445 L14.2307274,14.1251445 L14.2307274,15.1192464 L15.2248293,15.1192464 Z M8.5170545,21.2286298 C9.08327434,21.2286298 9.36638426,20.9551713 9.36638426,20.4082544 C9.36638426,19.8549032 9.08327434,19.5782276 8.5170545,19.5782276 L6.36477568,19.5782276 C5.93367648,19.5782276 5.60070061,19.4640185 5.36584806,19.2356003 C5.13099552,19.0071821 5.01356924,18.6613376 5.01356924,18.1980668 L5.01356924,16.1036968 C5.01356924,15.5439113 4.73689364,15.2640185 4.18354243,15.2640185 C3.63019123,15.2640185 3.35351562,15.5439113 3.35351562,16.1036968 L3.35351562,18.3235359 C3.35351562,19.2886834 3.6012368,20.0141526 4.09667916,20.4999434 C4.59212152,20.9857343 5.32563359,21.2286298 6.29721536,21.2286298 L8.5170545,21.2286298 Z M18.4098159,21.2286298 C19.387832,21.2286298 20.1229526,20.9841258 20.6151778,20.4951177 C21.107403,20.0061097 21.3535156,19.2822491 21.3535156,18.3235359 L21.3535156,16.1036968 C21.3535156,15.5439113 21.07684,15.2640185 20.5234888,15.2640185 C19.9701376,15.2640185 19.693462,15.5439113 19.693462,16.1036968 L19.693462,18.1980668 C19.693462,18.6613376 19.5760357,19.0071821 19.3411832,19.2356003 C19.1063306,19.4640185 18.7733548,19.5782276 18.3422556,19.5782276 L16.1899768,19.5782276 C15.6301912,19.5782276 15.3502985,19.8549032 15.3502985,20.4082544 C15.3502985,20.9551713 15.6301912,21.2286298 16.1899768,21.2286298 L18.4098159,21.2286298 Z M13.8446684,16.4801043 L13.8446684,15.4956539 L12.8505666,15.4956539 L12.8505666,16.4801043 L13.8446684,16.4801043 Z M16.6049902,16.4801043 L16.6049902,15.4956539 L15.6012368,15.4956539 L15.6012368,16.4801043 L16.6049902,16.4801043 Z" id="􀎻"></path>
        </g>
    </g>
</svg>