<svg xmlns="http://www.w3.org/2000/svg" width="20" height="23" viewBox="0 0 20 23">
    <defs>
        <filter id="55i4ypwe0a" color-interpolation-filters="auto">
            <feColorMatrix in="SourceGraphic" values="0 0 0 0 0.403922 0 0 0 0 0.337255 0 0 0 0 0.839216 0 0 0 1.000000 0"/>
        </filter>
    </defs>
    <g fill="none" fill-rule="evenodd">
        <g filter="url(#55i4ypwe0a)" transform="translate(-2808.000000, -7161.000000)">
            <g fill="#6756D6">
                <path d="M11.682 22.616c.913 0 1.601-.236 2.066-.707.466-.472.698-1.17.698-2.094V18.21l1.497-.002c.918 0 1.608-.235 2.07-.707.463-.47.694-1.169.694-2.093v-6.95c0-.552-.065-1.02-.193-1.406-.129-.385-.364-.753-.707-1.101l-4.352-4.435c-.319-.325-.67-.556-1.056-.694-.386-.137-.82-.206-1.304-.206H7.799c-.913 0-1.601.235-2.066.707-.466.471-.698 1.169-.698 2.093l-.001 1.608H3.529c-.912 0-1.6.235-2.066.706C.998 6.202.765 6.9.765 7.824v11.991c0 .925.233 1.622.698 2.094.465.471 1.154.707 2.066.707h8.153zm2.764-9.522c0-.575-.052-1.027-.156-1.354-.104-.328-.336-.675-.698-1.042l-4.738-4.82c-.342-.35-.68-.58-1.014-.69-.267-.088-.59-.14-.968-.158l-.268-.006V3.499c0-.422.11-.744.327-.964.217-.22.543-.33.978-.33h3.718v4.269c0 .526.134.92.4 1.18.266.26.656.39 1.17.39h3.93v7.29c0 .417-.108.737-.326.96-.217.223-.543.335-.977.335l-1.378.001v-3.536zm2.277-6.4H13.41c-.282 0-.423-.144-.423-.431v-3.36l3.737 3.791zm-5.16 14.343H3.64c-.428 0-.751-.112-.969-.336-.217-.223-.326-.543-.326-.96V7.889c0-.41.11-.725.331-.946.22-.22.545-.33.973-.33h2.746v4.857c0 .6.147 1.044.44 1.331.294.288.732.432 1.313.432h4.73v6.51c0 .416-.111.736-.331.96-.22.223-.548.335-.983.335zm1.056-9.22H8.313c-.172 0-.297-.039-.377-.119-.08-.08-.12-.208-.12-.385v-4.38l4.803 4.885z" transform="translate(2808.500000, 7161.000000)"/>
            </g>
        </g>
    </g>
</svg>
