<svg xmlns="http://www.w3.org/2000/svg" xmlns:xlink="http://www.w3.org/1999/xlink" width="301" height="301" viewBox="0 0 301 301">
    <defs>
        <path id="ffykt1i31a" d="M0 264c0 19.882 16.118 36 36 36H0zm300 0v36h-36c19.882 0 36-16.118 36-36zm0-228c0-19.882-16.118-36-36-36h36zM0 0h36C16.118 0 0 16.118 0 36V0z"/>
    </defs>
    <g fill="none" fill-rule="evenodd">
        <g>
            <g>
                <g>
                    <g transform="translate(-38.000000, -256.000000) translate(29.698795, 256.000000) translate(8.301205, 0.000000)">
                        <use fill="#FFF" xlink:href="#ffykt1i31a"/>
                    </g>
                    <path fill="#0DAA27" d="M296.178 29.013v7.028h3.863v-7.028C300.04 13.037 287.045.04 271.07.04h-7.03v3.863h7.03c13.845 0 25.108 11.264 25.108 25.109M296.178 264.04v7.03c0 13.845-11.263 25.108-25.108 25.108h-7.03v3.863h7.03c15.975 0 28.97-12.997 28.97-28.971v-7.03h-3.862zM3.904 36.04v-7.027c0-13.846 11.264-25.11 25.109-25.11h7.028V.042h-7.028C13.037.04.04 13.037.04 29.013v7.028h3.863zM3.904 271.07v-7.03H.04v7.03c0 15.975 12.996 28.97 28.972 28.97h7.028v-3.862h-7.028c-13.845 0-25.11-11.263-25.11-25.108" transform="translate(-38.000000, -256.000000) translate(29.698795, 256.000000) translate(8.301205, 0.000000)"/>
                </g>
            </g>
        </g>
    </g>
</svg>
